<svg viewBox="0 0 435 151" xmlns="http://www.w3.org/2000/svg" xml:space="preserve" style="fill-rule:evenodd;clip-rule:evenodd;stroke-linejoin:round;stroke-miterlimit:2"><g transform="scale(4.3436 1.50854)"><path d="M100 5c0-2.76-.778-5-1.737-5H1.737C.778 0 0 2.24 0 5v90c0 2.76.778 5 1.737 5h96.526c.959 0 1.737-2.24 1.737-5V5Z"/><clipPath id="a"><path d="M100 5c0-2.76-.778-5-1.737-5H1.737C.778 0 0 2.24 0 5v90c0 2.76.778 5 1.737 5h96.526c.959 0 1.737-2.24 1.737-5V5Z"/></clipPath><g clip-path="url(#a)"><path d="m18 0 18 10.498v21.004L18 42 0 31.502V10.498L18 0ZM2 11.693v18.614l16 9.332 16-9.332V11.693L18 2.36 2 11.693Z" style="fill:#fff;fill-rule:nonzero" transform="matrix(.52677 0 0 1.51676 8.383 18.14)"/><path d="m26 21-5 2.59V24h5v4H10v-4h5v-.437L10 21v-5l8 4.297L26 16" style="fill:#fff;fill-rule:nonzero" transform="matrix(.52677 0 0 1.51676 8.383 18.14)"/><path d="M.705-.473H.549a.127.127 0 0 0-.017-.053.136.136 0 0 0-.081-.066.18.18 0 0 0-.058-.009.172.172 0 0 0-.099.028.178.178 0 0 0-.065.081.325.325 0 0 0-.023.128c0 .052.008.096.024.131a.174.174 0 0 0 .065.08c.028.018.06.027.097.027.02 0 .039-.003.057-.008A.14.14 0 0 0 .53-.197a.14.14 0 0 0 .019-.052l.156.001a.28.28 0 0 1-.094.179.29.29 0 0 1-.096.058.354.354 0 0 1-.126.021.346.346 0 0 1-.174-.044.304.304 0 0 1-.12-.128.419.419 0 0 1-.045-.202c0-.079.015-.146.045-.202a.305.305 0 0 1 .122-.127.379.379 0 0 1 .29-.026.275.275 0 0 1 .164.134c.018.033.029.07.034.112Z" style="fill:#fff;fill-rule:nonzero" transform="matrix(8.6984 0 0 25.04572 35.163 41.875)"/><path d="M.309.011a.29.29 0 0 1-.145-.035.23.23 0 0 1-.093-.097.318.318 0 0 1-.033-.149c0-.056.011-.106.033-.148a.251.251 0 0 1 .092-.099.265.265 0 0 1 .14-.036c.036 0 .069.006.101.018a.228.228 0 0 1 .136.138.342.342 0 0 1 .019.121v.042h-.46v-.094h.318a.121.121 0 0 0-.014-.058.107.107 0 0 0-.04-.039.123.123 0 0 0-.119.001.127.127 0 0 0-.041.042.12.12 0 0 0-.015.059v.089a.15.15 0 0 0 .015.07c.01.02.024.035.043.046.018.01.04.016.065.016a.172.172 0 0 0 .047-.007.084.084 0 0 0 .035-.022.09.09 0 0 0 .023-.034l.14.009a.191.191 0 0 1-.043.088.218.218 0 0 1-.085.058.312.312 0 0 1-.119.021Z" style="fill:#fff;fill-rule:nonzero" transform="matrix(8.6984 0 0 25.04572 41.705 41.875)"/><path d="M.06 0v-.545h.147v.095h.006a.137.137 0 0 1 .05-.077.127.127 0 0 1 .081-.026l.024.001a.12.12 0 0 1 .023.004v.134a.155.155 0 0 0-.029-.005.226.226 0 0 0-.035-.003.115.115 0 0 0-.059.015.102.102 0 0 0-.041.039.118.118 0 0 0-.015.059V0H.06Z" style="fill:#fff;fill-rule:nonzero" transform="matrix(8.6984 0 0 25.04572 46.903 41.875)"/><path d="M.35-.545v.113H.022v-.113H.35ZM.097-.676h.151v.508c0 .014.002.025.006.033a.039.039 0 0 0 .018.016.076.076 0 0 0 .027.005L.32-.116a.067.067 0 0 1 .017-.003l.023.112-.032.009a.227.227 0 0 1-.05.005.219.219 0 0 1-.095-.014.133.133 0 0 1-.064-.052.153.153 0 0 1-.022-.089v-.528Z" style="fill:#fff;fill-rule:nonzero" transform="matrix(8.6984 0 0 25.04572 50.697 41.875)"/><path d="M.06 0v-.545h.152V0H.06Zm.076-.616a.08.08 0 0 1-.057-.022.071.071 0 0 1-.024-.054c0-.021.008-.039.024-.054a.081.081 0 0 1 .057-.023c.023 0 .042.008.058.023a.071.071 0 0 1 .024.054.071.071 0 0 1-.024.054.08.08 0 0 1-.058.022Z" style="fill:#fff;fill-rule:nonzero" transform="matrix(8.6984 0 0 25.04572 54.076 41.875)"/><path d="M.354-.545v.113H.017v-.113h.337ZM.094 0v-.585c0-.039.008-.072.023-.098a.152.152 0 0 1 .064-.059.21.21 0 0 1 .092-.019.32.32 0 0 1 .064.005l.043.01-.027.113-.022-.005a.109.109 0 0 0-.026-.003c-.023 0-.038.006-.047.016-.009.01-.013.025-.013.043V0H.094Z" style="fill:#fff;fill-rule:nonzero" transform="matrix(8.6984 0 0 25.04572 56.442 41.875)"/><path d="M.06 0v-.545h.152V0H.06Zm.076-.616a.08.08 0 0 1-.057-.022.071.071 0 0 1-.024-.054c0-.021.008-.039.024-.054a.081.081 0 0 1 .057-.023c.023 0 .042.008.058.023a.071.071 0 0 1 .024.054.071.071 0 0 1-.024.054.08.08 0 0 1-.058.022Z" style="fill:#fff;fill-rule:nonzero" transform="matrix(8.6984 0 0 25.04572 59.797 41.875)"/><path d="M.309.011a.29.29 0 0 1-.145-.035.23.23 0 0 1-.093-.097.318.318 0 0 1-.033-.149c0-.056.011-.106.033-.148a.251.251 0 0 1 .092-.099.265.265 0 0 1 .14-.036c.036 0 .069.006.101.018a.228.228 0 0 1 .136.138.342.342 0 0 1 .019.121v.042h-.46v-.094h.318a.121.121 0 0 0-.014-.058.107.107 0 0 0-.04-.039.123.123 0 0 0-.119.001.127.127 0 0 0-.041.042.12.12 0 0 0-.015.059v.089a.15.15 0 0 0 .015.07c.01.02.024.035.043.046.018.01.04.016.065.016a.172.172 0 0 0 .047-.007.084.084 0 0 0 .035-.022.09.09 0 0 0 .023-.034l.14.009a.191.191 0 0 1-.043.088.218.218 0 0 1-.085.058.312.312 0 0 1-.119.021Z" style="fill:#fff;fill-rule:nonzero" transform="matrix(8.6984 0 0 25.04572 62.163 41.875)"/><path d="M.261.009a.206.206 0 0 1-.192-.127.371.371 0 0 1-.029-.154c0-.063.01-.115.03-.156a.207.207 0 0 1 .081-.093.202.202 0 0 1 .187-.016c.02.01.037.023.049.038a.18.18 0 0 1 .029.045h.005v-.273h.151V0H.423v-.087H.416a.196.196 0 0 1-.03.045.167.167 0 0 1-.125.051Zm.048-.121a.092.092 0 0 0 .062-.02.123.123 0 0 0 .039-.056.24.24 0 0 0 .014-.085.24.24 0 0 0-.013-.084.125.125 0 0 0-.04-.056.097.097 0 0 0-.062-.019.1.1 0 0 0-.063.02.127.127 0 0 0-.038.056.237.237 0 0 0-.013.083c0 .032.004.06.013.084a.126.126 0 0 0 .039.057c.017.014.037.02.062.02Z" style="fill:#fff;fill-rule:nonzero" transform="matrix(8.6984 0 0 25.04572 67.362 41.875)"/><path d="M.063 0v-.727h.154v.32h.01l.261-.32h.185l-.27.325L.676 0H.492L.293-.299l-.076.092V0H.063Z" style="fill:#fff;fill-rule:nonzero" transform="matrix(8.6984 0 0 25.04572 35.163 72.258)"/><path d="M.06 0v-.545h.152V0H.06Zm.076-.616a.08.08 0 0 1-.057-.022.071.071 0 0 1-.024-.054c0-.021.008-.039.024-.054a.081.081 0 0 1 .057-.023c.023 0 .042.008.058.023a.071.071 0 0 1 .024.054.071.071 0 0 1-.024.054.08.08 0 0 1-.058.022Z" style="fill:#fff;fill-rule:nonzero" transform="matrix(8.6984 0 0 25.04572 41.458 72.258)"/><path d="M.06 0v-.545h.147v.095h.006a.137.137 0 0 1 .05-.077.127.127 0 0 1 .081-.026l.024.001a.12.12 0 0 1 .023.004v.134a.155.155 0 0 0-.029-.005.226.226 0 0 0-.035-.003.115.115 0 0 0-.059.015.102.102 0 0 0-.041.039.118.118 0 0 0-.015.059V0H.06Z" style="fill:#fff;fill-rule:nonzero" transform="matrix(8.6984 0 0 25.04572 43.824 72.258)"/><path d="M.063 0v-.727h.151v.273h.005a.212.212 0 0 1 .029-.045.15.15 0 0 1 .05-.038.202.202 0 0 1 .186.016c.034.02.061.051.081.093.02.041.03.093.03.156 0 .061-.01.112-.029.154a.206.206 0 0 1-.267.112.157.157 0 0 1-.08-.081H.212V0H.063Zm.148-.273a.24.24 0 0 0 .014.085.123.123 0 0 0 .039.056c.017.014.038.02.062.02a.092.092 0 0 0 .062-.02.112.112 0 0 0 .039-.057.263.263 0 0 0 .001-.167.129.129 0 0 0-.039-.056.1.1 0 0 0-.063-.02.097.097 0 0 0-.062.019.123.123 0 0 0-.039.056.238.238 0 0 0-.014.084Z" style="fill:#fff;fill-rule:nonzero" transform="matrix(8.6984 0 0 25.04572 47.38 72.258)"/><path d="M.154.205A.31.31 0 0 1 .059.189L.093.076a.223.223 0 0 0 .048.009.064.064 0 0 0 .037-.01.073.073 0 0 0 .026-.036L.213.016.017-.545h.159l.113.4h.006l.114-.4h.16L.357.059a.27.27 0 0 1-.041.077.184.184 0 0 1-.066.051.235.235 0 0 1-.096.018Z" style="fill:#fff;fill-rule:nonzero" transform="matrix(8.6984 0 0 25.04572 52.748 72.258)"/><path d="M.063 0v-.727H.35c.055 0 .102.01.141.031.039.021.069.05.089.087.021.037.031.08.031.128a.266.266 0 0 1-.031.128.21.21 0 0 1-.091.086.3.3 0 0 1-.143.031H.163v-.123h.158c.03 0 .054-.005.074-.015a.111.111 0 0 0 .043-.043.134.134 0 0 0 .014-.064.127.127 0 0 0-.014-.063.103.103 0 0 0-.043-.042.153.153 0 0 0-.074-.016H.217V0H.063Z" style="fill:#fff;fill-rule:nonzero" transform="matrix(8.6984 0 0 25.04572 59.862 72.258)"/><path d="M.216.01a.227.227 0 0 1-.093-.018.15.15 0 0 1-.065-.054.167.167 0 0 1-.023-.09c0-.031.005-.056.016-.077a.144.144 0 0 1 .046-.049.226.226 0 0 1 .065-.029A.488.488 0 0 1 .24-.32l.076-.01a.11.11 0 0 0 .043-.013.032.032 0 0 0 .013-.026v-.002a.068.068 0 0 0-.021-.053.09.09 0 0 0-.06-.018.107.107 0 0 0-.065.018.084.084 0 0 0-.032.045l-.14-.012a.193.193 0 0 1 .123-.142.358.358 0 0 1 .202-.009.226.226 0 0 1 .074.033.155.155 0 0 1 .051.057.174.174 0 0 1 .019.084V0H.38v-.076H.375a.137.137 0 0 1-.035.045.193.193 0 0 1-.124.041Zm.043-.104a.138.138 0 0 0 .059-.013.1.1 0 0 0 .04-.036.095.095 0 0 0 .015-.052v-.058a.114.114 0 0 1-.019.009l-.028.006a1.748 1.748 0 0 1-.058.01.154.154 0 0 0-.047.012.081.081 0 0 0-.031.023.06.06 0 0 0-.011.036c0 .02.008.036.023.047a.094.094 0 0 0 .057.016Z" style="fill:#fff;fill-rule:nonzero" transform="matrix(8.6984 0 0 25.04572 65.369 72.258)"/><path d="M.06 0v-.545h.147v.095h.006a.137.137 0 0 1 .05-.077.127.127 0 0 1 .081-.026l.024.001a.12.12 0 0 1 .023.004v.134a.155.155 0 0 0-.029-.005.226.226 0 0 0-.035-.003.115.115 0 0 0-.059.015.102.102 0 0 0-.041.039.118.118 0 0 0-.015.059V0H.06Z" style="fill:#fff;fill-rule:nonzero" transform="matrix(8.6984 0 0 25.04572 70.416 72.258)"/><path d="M.35-.545v.113H.022v-.113H.35ZM.097-.676h.151v.508c0 .014.002.025.006.033a.039.039 0 0 0 .018.016.076.076 0 0 0 .027.005L.32-.116a.067.067 0 0 1 .017-.003l.023.112-.032.009a.227.227 0 0 1-.05.005.219.219 0 0 1-.095-.014.133.133 0 0 1-.064-.052.153.153 0 0 1-.022-.089v-.528Z" style="fill:#fff;fill-rule:nonzero" transform="matrix(8.6984 0 0 25.04572 74.21 72.258)"/><path d="M.212-.315V0H.06v-.545h.145v.096h.006a.152.152 0 0 1 .061-.076.189.189 0 0 1 .103-.028.174.174 0 0 1 .165.096.248.248 0 0 1 .023.11V0H.412v-.32c0-.034-.008-.06-.026-.079a.094.094 0 0 0-.071-.028.12.12 0 0 0-.054.013.101.101 0 0 0-.036.038.128.128 0 0 0-.013.061Z" style="fill:#fff;fill-rule:nonzero" transform="matrix(8.6984 0 0 25.04572 77.589 72.258)"/><path d="M.309.011a.29.29 0 0 1-.145-.035.23.23 0 0 1-.093-.097.318.318 0 0 1-.033-.149c0-.056.011-.106.033-.148a.251.251 0 0 1 .092-.099.265.265 0 0 1 .14-.036c.036 0 .069.006.101.018a.228.228 0 0 1 .136.138.342.342 0 0 1 .019.121v.042h-.46v-.094h.318a.121.121 0 0 0-.014-.058.107.107 0 0 0-.04-.039.123.123 0 0 0-.119.001.127.127 0 0 0-.041.042.12.12 0 0 0-.015.059v.089a.15.15 0 0 0 .015.07c.01.02.024.035.043.046.018.01.04.016.065.016a.172.172 0 0 0 .047-.007.084.084 0 0 0 .035-.022.09.09 0 0 0 .023-.034l.14.009a.191.191 0 0 1-.043.088.218.218 0 0 1-.085.058.312.312 0 0 1-.119.021Z" style="fill:#fff;fill-rule:nonzero" transform="matrix(8.6984 0 0 25.04572 82.998 72.258)"/><path d="M.06 0v-.545h.147v.095h.006a.137.137 0 0 1 .05-.077.127.127 0 0 1 .081-.026l.024.001a.12.12 0 0 1 .023.004v.134a.155.155 0 0 0-.029-.005.226.226 0 0 0-.035-.003.115.115 0 0 0-.059.015.102.102 0 0 0-.041.039.118.118 0 0 0-.015.059V0H.06Z" style="fill:#fff;fill-rule:nonzero" transform="matrix(8.6984 0 0 25.04572 88.196 72.258)"/></g></g></svg>